<svg width="797" height="368" viewBox="0 0 797 368" fill="none" xmlns="http://www.w3.org/2000/svg">
<rect y="97" width="192" height="71" rx="13" fill="#491515"/>
<path d="M48.6641 137H47.1289V131.996L44.4277 136.748C44.3613 136.869 44.2676 136.961 44.1465 137.023C44.0293 137.086 43.9023 137.117 43.7656 137.117C43.6328 137.117 43.5078 137.086 43.3906 137.023C43.2773 136.961 43.1875 136.869 43.1211 136.748L40.4082 131.996V137H38.8848V129.248C38.8848 129.072 38.9355 128.916 39.0371 128.779C39.1426 128.643 39.2793 128.551 39.4473 128.504C39.5293 128.484 39.6113 128.479 39.6934 128.486C39.7754 128.49 39.8535 128.508 39.9277 128.539C40.0059 128.566 40.0762 128.607 40.1387 128.662C40.2012 128.713 40.2539 128.775 40.2969 128.85L43.7656 134.879L47.2344 128.85C47.3242 128.701 47.4473 128.596 47.6035 128.533C47.7637 128.471 47.9297 128.461 48.1016 128.504C48.2656 128.551 48.4004 128.643 48.5059 128.779C48.6113 128.916 48.6641 129.072 48.6641 129.248V137ZM58.4434 131.41C58.4434 131.758 58.3984 132.068 58.3086 132.342C58.2227 132.615 58.1074 132.857 57.9629 133.068C57.8184 133.275 57.6484 133.453 57.4531 133.602C57.2617 133.75 57.0625 133.873 56.8555 133.971C56.6484 134.064 56.4375 134.133 56.2227 134.176C56.0117 134.219 55.8125 134.24 55.625 134.24H55.0098V137H53.4746V134.24H52.8652C52.6777 134.24 52.4766 134.219 52.2617 134.176C52.0508 134.133 51.8398 134.064 51.6289 133.971C51.4219 133.873 51.2227 133.75 51.0312 133.602C50.8398 133.453 50.6699 133.275 50.5215 133.068C50.377 132.857 50.2598 132.615 50.1699 132.342C50.084 132.064 50.041 131.754 50.041 131.41V128.598H51.5645V131.41C51.5645 131.609 51.5957 131.789 51.6582 131.949C51.7207 132.105 51.8086 132.24 51.9219 132.354C52.0352 132.467 52.1719 132.555 52.332 132.617C52.4961 132.676 52.6777 132.705 52.877 132.705H55.625C55.7695 132.682 55.918 132.652 56.0703 132.617C56.2227 132.578 56.3613 132.514 56.4863 132.424C56.6113 132.334 56.7148 132.209 56.7969 132.049C56.8789 131.889 56.9199 131.676 56.9199 131.41V128.598H58.4434V131.41ZM70.5195 133.566H65.709V132.031H70.5195V133.566ZM71.2051 137H65.709C65.498 137 65.2676 136.963 65.0176 136.889C64.7676 136.814 64.5352 136.693 64.3203 136.525C64.1094 136.354 63.9316 136.133 63.7871 135.863C63.6465 135.59 63.5762 135.256 63.5762 134.861V129.365C63.5762 129.26 63.5957 129.16 63.6348 129.066C63.6738 128.973 63.7266 128.891 63.793 128.82C63.8633 128.75 63.9453 128.695 64.0391 128.656C64.1328 128.617 64.2344 128.598 64.3438 128.598H71.2051V130.121H65.0996V134.861C65.0996 135.061 65.1523 135.213 65.2578 135.318C65.3633 135.424 65.5176 135.477 65.7207 135.477H71.2051V137ZM76.5195 131.598L79.0859 128.598H81.166L77.5508 132.811L81.1426 137H79.0742L76.5195 134.023L73.9766 137H71.9023L75.4883 132.811L71.8906 128.598H73.9531L76.5195 131.598ZM89.7207 130.121H86.3633V137H84.8398V130.121H81.4766V128.598H89.7207V130.121ZM97.7539 133.566H92.9434V132.031H97.7539V133.566ZM98.4395 137H92.9434C92.7324 137 92.502 136.963 92.252 136.889C92.002 136.814 91.7695 136.693 91.5547 136.525C91.3438 136.354 91.166 136.133 91.0215 135.863C90.8809 135.59 90.8105 135.256 90.8105 134.861V129.365C90.8105 129.26 90.8301 129.16 90.8691 129.066C90.9082 128.973 90.9609 128.891 91.0273 128.82C91.0977 128.75 91.1797 128.695 91.2734 128.656C91.3672 128.617 91.4688 128.598 91.5781 128.598H98.4395V130.121H92.334V134.861C92.334 135.061 92.3867 135.213 92.4922 135.318C92.5977 135.424 92.752 135.477 92.9551 135.477H98.4395V137ZM108.312 136.35C108.312 136.459 108.291 136.561 108.248 136.654C108.209 136.748 108.154 136.83 108.084 136.9C108.018 136.967 107.938 137.02 107.844 137.059C107.75 137.098 107.65 137.117 107.545 137.117C107.451 137.117 107.355 137.1 107.258 137.064C107.164 137.029 107.08 136.973 107.006 136.895L101.439 131.082V137H99.916V129.248C99.916 129.092 99.959 128.951 100.045 128.826C100.135 128.697 100.248 128.602 100.385 128.539C100.529 128.48 100.678 128.467 100.83 128.498C100.982 128.525 101.113 128.596 101.223 128.709L106.789 134.516V128.598H108.312V136.35ZM117.682 130.121H114.324V137H112.801V130.121H109.438V128.598H117.682V130.121ZM120.342 137H118.818V128.598H120.342V137ZM130.941 133.602C130.941 134.113 130.854 134.584 130.678 135.014C130.502 135.443 130.258 135.814 129.945 136.127C129.633 136.439 129.262 136.684 128.832 136.859C128.406 137.031 127.941 137.117 127.438 137.117H125.375C124.871 137.117 124.404 137.031 123.975 136.859C123.545 136.684 123.174 136.439 122.861 136.127C122.549 135.814 122.303 135.443 122.123 135.014C121.947 134.584 121.859 134.113 121.859 133.602V131.996C121.859 131.488 121.947 131.02 122.123 130.59C122.303 130.156 122.549 129.785 122.861 129.477C123.174 129.164 123.545 128.92 123.975 128.744C124.404 128.568 124.871 128.48 125.375 128.48H127.438C127.941 128.48 128.406 128.568 128.832 128.744C129.262 128.92 129.633 129.164 129.945 129.477C130.258 129.785 130.502 130.156 130.678 130.59C130.854 131.02 130.941 131.488 130.941 131.996V133.602ZM129.418 131.996C129.418 131.695 129.369 131.424 129.271 131.182C129.178 130.936 129.043 130.727 128.867 130.555C128.695 130.379 128.486 130.244 128.24 130.15C127.998 130.053 127.73 130.004 127.438 130.004H125.375C125.078 130.004 124.807 130.053 124.561 130.15C124.318 130.244 124.109 130.379 123.934 130.555C123.758 130.727 123.621 130.936 123.523 131.182C123.43 131.424 123.383 131.695 123.383 131.996V133.602C123.383 133.902 123.43 134.176 123.523 134.422C123.621 134.664 123.758 134.873 123.934 135.049C124.109 135.221 124.318 135.355 124.561 135.453C124.807 135.547 125.078 135.594 125.375 135.594H127.426C127.723 135.594 127.992 135.547 128.234 135.453C128.48 135.355 128.691 135.221 128.867 135.049C129.043 134.873 129.178 134.664 129.271 134.422C129.369 134.176 129.418 133.902 129.418 133.602V131.996ZM140.844 136.35C140.844 136.459 140.822 136.561 140.779 136.654C140.74 136.748 140.686 136.83 140.615 136.9C140.549 136.967 140.469 137.02 140.375 137.059C140.281 137.098 140.182 137.117 140.076 137.117C139.982 137.117 139.887 137.1 139.789 137.064C139.695 137.029 139.611 136.973 139.537 136.895L133.971 131.082V137H132.447V129.248C132.447 129.092 132.49 128.951 132.576 128.826C132.666 128.697 132.779 128.602 132.916 128.539C133.061 128.48 133.209 128.467 133.361 128.498C133.514 128.525 133.645 128.596 133.754 128.709L139.32 134.516V128.598H140.844V136.35ZM150.693 134.527C150.693 134.828 150.654 135.1 150.576 135.342C150.502 135.58 150.402 135.791 150.277 135.975C150.152 136.158 150.006 136.314 149.838 136.443C149.67 136.572 149.496 136.678 149.316 136.76C149.137 136.842 148.953 136.902 148.766 136.941C148.582 136.98 148.408 137 148.244 137H142.367V135.477H148.244C148.537 135.477 148.764 135.391 148.924 135.219C149.088 135.047 149.17 134.816 149.17 134.527C149.17 134.387 149.148 134.258 149.105 134.141C149.062 134.023 149 133.922 148.918 133.836C148.84 133.75 148.742 133.684 148.625 133.637C148.512 133.59 148.385 133.566 148.244 133.566H144.74C144.494 133.566 144.229 133.523 143.943 133.438C143.658 133.348 143.393 133.205 143.146 133.01C142.904 132.814 142.701 132.559 142.537 132.242C142.377 131.926 142.297 131.539 142.297 131.082C142.297 130.625 142.377 130.24 142.537 129.928C142.701 129.611 142.904 129.355 143.146 129.16C143.393 128.961 143.658 128.818 143.943 128.732C144.229 128.643 144.494 128.598 144.74 128.598H149.926V130.121H144.74C144.451 130.121 144.225 130.209 144.061 130.385C143.9 130.561 143.82 130.793 143.82 131.082C143.82 131.375 143.9 131.607 144.061 131.779C144.225 131.947 144.451 132.031 144.74 132.031H148.244H148.256C148.42 132.035 148.594 132.059 148.777 132.102C148.961 132.141 149.143 132.203 149.322 132.289C149.506 132.375 149.68 132.484 149.844 132.617C150.008 132.746 150.152 132.902 150.277 133.086C150.406 133.27 150.508 133.48 150.582 133.719C150.656 133.957 150.693 134.227 150.693 134.527Z" fill="white"/>
<path d="M48.6641 137V138H49.6641V137H48.6641ZM47.1289 137H46.1289V138H47.1289V137ZM47.1289 131.996H48.1289V128.213L46.2595 131.502L47.1289 131.996ZM44.4277 136.748L43.5584 136.254L43.5546 136.261L43.5509 136.267L44.4277 136.748ZM44.1465 137.023L43.6878 136.135L43.6759 136.141L44.1465 137.023ZM43.3906 137.023L42.9075 137.899L42.9138 137.902L42.92 137.906L43.3906 137.023ZM43.1211 136.748L43.9979 136.267L43.9938 136.26L43.9895 136.252L43.1211 136.748ZM40.4082 131.996L41.2766 131.5L39.4082 128.228V131.996H40.4082ZM40.4082 137V138H41.4082V137H40.4082ZM38.8848 137H37.8848V138H38.8848V137ZM39.0371 128.779L38.2453 128.168L38.2398 128.176L38.2344 128.183L39.0371 128.779ZM39.4473 128.504L39.2156 127.531L39.197 127.536L39.1785 127.541L39.4473 128.504ZM39.6934 128.486L39.5986 129.482L39.6221 129.484L39.6458 129.485L39.6934 128.486ZM39.9277 128.539L39.5397 129.461L39.5682 129.473L39.5974 129.483L39.9277 128.539ZM40.1387 128.662L39.4802 129.415L39.4939 129.427L39.5081 129.438L40.1387 128.662ZM40.2969 128.85L41.1637 128.351L41.1623 128.349L40.2969 128.85ZM43.7656 134.879L42.8988 135.378L43.7656 136.884L44.6324 135.378L43.7656 134.879ZM47.2344 128.85L46.3789 128.332L46.3731 128.341L46.3676 128.351L47.2344 128.85ZM47.6035 128.533L47.24 127.602L47.2321 127.605L47.6035 128.533ZM48.1016 128.504L48.3763 127.542L48.3603 127.538L48.3441 127.534L48.1016 128.504ZM48.6641 136H47.1289V138H48.6641V136ZM48.1289 137V131.996H46.1289V137H48.1289ZM46.2595 131.502L43.5584 136.254L45.2971 137.242L47.9983 132.49L46.2595 131.502ZM43.5509 136.267C43.5625 136.246 43.581 136.22 43.608 136.193C43.635 136.167 43.6633 136.147 43.6878 136.135L44.6051 137.912C44.9056 137.757 45.1438 137.522 45.3045 137.229L43.5509 136.267ZM43.6759 136.141C43.6893 136.134 43.706 136.127 43.7244 136.123C43.7426 136.118 43.7571 136.117 43.7656 136.117V138.117C44.0615 138.117 44.3507 138.048 44.6171 137.906L43.6759 136.141ZM43.7656 136.117C43.7785 136.117 43.7956 136.119 43.8148 136.124C43.834 136.128 43.8499 136.135 43.8612 136.141L42.92 137.906C43.1821 138.046 43.4687 138.117 43.7656 138.117V136.117ZM43.8737 136.148C43.9018 136.163 43.9292 136.184 43.953 136.208C43.9764 136.232 43.9906 136.254 43.9979 136.267L42.2443 137.229C42.3954 137.505 42.6169 137.739 42.9075 137.899L43.8737 136.148ZM43.9895 136.252L41.2766 131.5L39.5398 132.492L42.2527 137.244L43.9895 136.252ZM39.4082 131.996V137H41.4082V131.996H39.4082ZM40.4082 136H38.8848V138H40.4082V136ZM39.8848 137V129.248H37.8848V137H39.8848ZM39.8848 129.248C39.8848 129.258 39.8831 129.28 39.8739 129.308C39.8645 129.337 39.8514 129.36 39.8399 129.376L38.2344 128.183C38.0004 128.498 37.8848 128.865 37.8848 129.248H39.8848ZM39.8289 129.39C39.8191 129.403 39.8015 129.421 39.7762 129.438C39.7509 129.455 39.7287 129.464 39.7161 129.467L39.1785 127.541C38.805 127.645 38.484 127.859 38.2453 128.168L39.8289 129.39ZM39.6789 129.477C39.6566 129.482 39.6284 129.485 39.5986 129.482L39.7882 127.491C39.5943 127.472 39.402 127.487 39.2156 127.531L39.6789 129.477ZM39.6458 129.485C39.613 129.484 39.5757 129.476 39.5397 129.461L40.3158 127.617C40.1313 127.54 39.9377 127.497 39.7409 127.487L39.6458 129.485ZM39.5974 129.483C39.5545 129.468 39.5135 129.444 39.4802 129.415L40.7972 127.91C40.6388 127.771 40.4572 127.665 40.2581 127.595L39.5974 129.483ZM39.5081 129.438C39.4702 129.407 39.4454 129.375 39.4314 129.351L41.1623 128.349C41.0624 128.176 40.9321 128.018 40.7693 127.886L39.5081 129.438ZM39.4301 129.348L42.8988 135.378L44.6324 134.38L41.1637 128.351L39.4301 129.348ZM44.6324 135.378L48.1012 129.348L46.3676 128.351L42.8988 134.38L44.6324 135.378ZM48.0899 129.367C48.0837 129.378 48.0694 129.397 48.0448 129.418C48.02 129.44 47.9946 129.454 47.9749 129.462L47.2321 127.605C46.8676 127.751 46.5774 128.004 46.3789 128.332L48.0899 129.367ZM47.9671 129.465C47.953 129.47 47.9318 129.476 47.9069 129.477C47.8822 129.479 47.8651 129.476 47.859 129.474L48.3441 127.534C47.9776 127.442 47.5995 127.461 47.24 127.602L47.9671 129.465ZM47.8268 129.465C47.811 129.461 47.7876 129.451 47.7627 129.434C47.7379 129.417 47.722 129.4 47.7141 129.39L49.2976 128.168C49.0634 127.865 48.7484 127.649 48.3763 127.542L47.8268 129.465ZM47.7141 129.39C47.7024 129.375 47.6877 129.351 47.677 129.319C47.6664 129.287 47.6641 129.262 47.6641 129.248H49.6641C49.6641 128.856 49.5407 128.484 49.2976 128.168L47.7141 129.39ZM47.6641 129.248V137H49.6641V129.248H47.6641ZM58.3086 132.342L57.3585 132.03L57.3546 132.042L58.3086 132.342ZM57.9629 133.068L58.7829 133.641L58.7878 133.634L57.9629 133.068ZM57.4531 133.602L56.848 132.805L56.8403 132.811L57.4531 133.602ZM56.8555 133.971L57.268 134.882L57.2751 134.878L57.2821 134.875L56.8555 133.971ZM56.2227 134.176L56.0265 133.195L56.0231 133.196L56.2227 134.176ZM55.0098 134.24V133.24H54.0098V134.24H55.0098ZM55.0098 137V138H56.0098V137H55.0098ZM53.4746 137H52.4746V138H53.4746V137ZM53.4746 134.24H54.4746V133.24H53.4746V134.24ZM52.2617 134.176L52.0621 135.156L52.0656 135.156L52.2617 134.176ZM51.6289 133.971L51.2023 134.875L51.2125 134.88L51.2228 134.885L51.6289 133.971ZM50.5215 133.068L49.6966 133.634L49.7026 133.642L49.7088 133.651L50.5215 133.068ZM50.1699 132.342L49.2147 132.638L49.2172 132.646L49.2199 132.654L50.1699 132.342ZM50.041 128.598V127.598H49.041V128.598H50.041ZM51.5645 128.598H52.5645V127.598H51.5645V128.598ZM51.6582 131.949L50.7266 132.313L50.7297 132.321L51.6582 131.949ZM52.332 132.617L51.9685 133.549L51.982 133.554L51.9957 133.559L52.332 132.617ZM55.625 132.705V133.705H55.7056L55.7851 133.692L55.625 132.705ZM56.0703 132.617L56.2952 133.592L56.307 133.589L56.3187 133.586L56.0703 132.617ZM56.9199 128.598V127.598H55.9199V128.598H56.9199ZM58.4434 128.598H59.4434V127.598H58.4434V128.598ZM57.4434 131.41C57.4434 131.673 57.4093 131.875 57.3586 132.03L59.2586 132.654C59.3876 132.261 59.4434 131.843 59.4434 131.41H57.4434ZM57.3546 132.042C57.2948 132.232 57.2203 132.383 57.138 132.503L58.7878 133.634C58.9946 133.332 59.1505 132.998 59.2626 132.642L57.3546 132.042ZM57.1429 132.496C57.0562 132.62 56.9581 132.722 56.848 132.805L58.0582 134.398C58.3388 134.185 58.5805 133.931 58.7828 133.641L57.1429 132.496ZM56.8403 132.811C56.7033 132.918 56.5661 133.002 56.4289 133.066L57.2821 134.875C57.5589 134.745 57.8202 134.582 58.0659 134.392L56.8403 132.811ZM56.443 133.06C56.3026 133.123 56.1641 133.168 56.0265 133.195L56.4188 135.156C56.7109 135.098 56.9943 135.006 57.268 134.882L56.443 133.06ZM56.0231 133.196C55.8684 133.227 55.7365 133.24 55.625 133.24V135.24C55.8885 135.24 56.1551 135.21 56.4223 135.156L56.0231 133.196ZM55.625 133.24H55.0098V135.24H55.625V133.24ZM54.0098 134.24V137H56.0098V134.24H54.0098ZM55.0098 136H53.4746V138H55.0098V136ZM54.4746 137V134.24H52.4746V137H54.4746ZM53.4746 133.24H52.8652V135.24H53.4746V133.24ZM52.8652 133.24C52.7535 133.24 52.6186 133.227 52.4578 133.195L52.0656 135.156C52.3345 135.21 52.602 135.24 52.8652 135.24V133.24ZM52.4613 133.196C52.3263 133.168 52.1845 133.123 52.035 133.057L51.2228 134.885C51.4952 135.006 51.7752 135.097 52.0621 135.156L52.4613 133.196ZM52.0555 133.066C51.9183 133.002 51.7811 132.918 51.6441 132.811L50.4184 134.392C50.6642 134.582 50.9255 134.745 51.2023 134.875L52.0555 133.066ZM51.6441 132.811C51.5328 132.725 51.4293 132.618 51.3342 132.486L49.7088 133.651C49.9106 133.932 50.1469 134.181 50.4184 134.392L51.6441 132.811ZM51.3464 132.503C51.2616 132.379 51.1839 132.224 51.12 132.03L49.2199 132.654C49.3356 133.006 49.4923 133.336 49.6966 133.634L51.3464 132.503ZM51.1251 132.046C51.0738 131.88 51.041 131.671 51.041 131.41H49.041C49.041 131.836 49.0942 132.249 49.2147 132.638L51.1251 132.046ZM51.041 131.41V128.598H49.041V131.41H51.041ZM50.041 129.598H51.5645V127.598H50.041V129.598ZM50.5645 128.598V131.41H52.5645V128.598H50.5645ZM50.5645 131.41C50.5645 131.714 50.6123 132.02 50.7266 132.313L52.5898 131.586C52.5791 131.558 52.5645 131.504 52.5645 131.41H50.5645ZM50.7297 132.321C50.8399 132.596 51.0009 132.847 51.2148 133.061L52.629 131.646C52.6163 131.634 52.6015 131.615 52.5867 131.578L50.7297 132.321ZM51.2148 133.061C51.4328 133.279 51.6891 133.44 51.9685 133.549L52.6956 131.686C52.6547 131.67 52.6375 131.655 52.629 131.646L51.2148 133.061ZM51.9957 133.559C52.282 133.661 52.5793 133.705 52.877 133.705V131.705C52.7761 131.705 52.7102 131.69 52.6684 131.675L51.9957 133.559ZM52.877 133.705H55.625V131.705H52.877V133.705ZM55.7851 133.692C55.9527 133.665 56.1228 133.631 56.2952 133.592L55.8455 131.643C55.7131 131.673 55.5863 131.698 55.4649 131.718L55.7851 133.692ZM56.3187 133.586C56.5889 133.517 56.8417 133.4 57.07 133.236L55.9027 131.612C55.8809 131.627 55.8564 131.64 55.8219 131.649L56.3187 133.586ZM57.07 133.236C57.3441 133.039 57.5447 132.782 57.6869 132.505L55.9068 131.593C55.8955 131.615 55.8881 131.624 55.8875 131.625C55.8872 131.625 55.8883 131.624 55.8911 131.621C55.8938 131.619 55.8977 131.615 55.9027 131.612L57.07 133.236ZM57.6869 132.505C57.8674 132.152 57.9199 131.765 57.9199 131.41H55.9199C55.9199 131.493 55.9134 131.548 55.9072 131.58C55.9011 131.612 55.897 131.612 55.9068 131.593L57.6869 132.505ZM57.9199 131.41V128.598H55.9199V131.41H57.9199ZM56.9199 129.598H58.4434V127.598H56.9199V129.598ZM57.4434 128.598V131.41H59.4434V128.598H57.4434ZM70.5195 133.566V134.566H71.5195V133.566H70.5195ZM65.709 133.566H64.709V134.566H65.709V133.566ZM65.709 132.031V131.031H64.709V132.031H65.709ZM70.5195 132.031H71.5195V131.031H70.5195V132.031ZM71.2051 137V138H72.2051V137H71.2051ZM64.3203 136.525L63.6886 137.301L63.6965 137.307L63.7044 137.313L64.3203 136.525ZM63.7871 135.863L62.8978 136.321L62.9018 136.328L62.9058 136.336L63.7871 135.863ZM63.793 128.82L63.0859 128.113L63.0758 128.123L63.066 128.134L63.793 128.82ZM71.2051 128.598H72.2051V127.598H71.2051V128.598ZM71.2051 130.121V131.121H72.2051V130.121H71.2051ZM65.0996 130.121V129.121H64.0996V130.121H65.0996ZM71.2051 135.477H72.2051V134.477H71.2051V135.477ZM70.5195 132.566H65.709V134.566H70.5195V132.566ZM66.709 133.566V132.031H64.709V133.566H66.709ZM65.709 133.031H70.5195V131.031H65.709V133.031ZM69.5195 132.031V133.566H71.5195V132.031H69.5195ZM71.2051 136H65.709V138H71.2051V136ZM65.709 136C65.614 136 65.4807 135.983 65.3022 135.93L64.733 137.847C65.0545 137.943 65.3821 138 65.709 138V136ZM65.3022 135.93C65.1778 135.893 65.0569 135.832 64.9362 135.738L63.7044 137.313C64.0134 137.555 64.3574 137.736 64.733 137.847L65.3022 135.93ZM64.952 135.75C64.8554 135.671 64.7582 135.558 64.6684 135.391L62.9058 136.336C63.105 136.707 63.3634 137.036 63.6886 137.301L64.952 135.75ZM64.6764 135.406C64.6262 135.308 64.5762 135.14 64.5762 134.861H62.5762C62.5762 135.371 62.6668 135.871 62.8978 136.321L64.6764 135.406ZM64.5762 134.861V129.365H62.5762V134.861H64.5762ZM64.5762 129.365C64.5762 129.375 64.5753 129.388 64.5721 129.404C64.569 129.42 64.5641 129.436 64.5578 129.451L62.7117 128.682C62.6199 128.902 62.5762 129.133 62.5762 129.365H64.5762ZM64.5578 129.451C64.5557 129.456 64.5516 129.465 64.5448 129.475C64.538 129.486 64.5296 129.497 64.52 129.507L63.066 128.134C62.9123 128.296 62.7949 128.482 62.7117 128.682L64.5578 129.451ZM64.5001 129.527C64.4891 129.538 64.4762 129.549 64.4619 129.559C64.4477 129.568 64.4345 129.575 64.4237 129.579L63.6544 127.733C63.4428 127.821 63.2505 127.949 63.0859 128.113L64.5001 129.527ZM64.4237 129.579C64.4063 129.587 64.3895 129.591 64.3744 129.594C64.3595 129.597 64.3488 129.598 64.3438 129.598V127.598C64.1126 127.598 63.8792 127.64 63.6544 127.733L64.4237 129.579ZM64.3438 129.598H71.2051V127.598H64.3438V129.598ZM70.2051 128.598V130.121H72.2051V128.598H70.2051ZM71.2051 129.121H65.0996V131.121H71.2051V129.121ZM64.0996 130.121V134.861H66.0996V130.121H64.0996ZM64.0996 134.861C64.0996 135.234 64.2014 135.676 64.5507 136.025L65.9649 134.611C66.0277 134.674 66.0651 134.743 66.0841 134.798C66.1016 134.848 66.0996 134.875 66.0996 134.861H64.0996ZM64.5507 136.025C64.9034 136.378 65.3508 136.477 65.7207 136.477V134.477C65.7033 134.477 65.7271 134.474 65.776 134.491C65.8297 134.509 65.8999 134.546 65.9649 134.611L64.5507 136.025ZM65.7207 136.477H71.2051V134.477H65.7207V136.477ZM70.2051 135.477V137H72.2051V135.477H70.2051ZM76.5195 131.598L75.7596 132.248L76.5195 133.136L77.2794 132.248L76.5195 131.598ZM79.0859 128.598V127.598H78.6254L78.3261 127.948L79.0859 128.598ZM81.166 128.598L81.9249 129.249L83.3419 127.598H81.166V128.598ZM77.5508 132.811L76.7919 132.159L76.2333 132.81L76.7916 133.461L77.5508 132.811ZM81.1426 137V138H83.3171L81.9018 136.349L81.1426 137ZM79.0742 137L78.3154 137.651L78.6147 138H79.0742V137ZM76.5195 134.023L77.2784 133.372L76.5178 132.486L75.7592 133.374L76.5195 134.023ZM73.9766 137V138H74.4375L74.7369 137.65L73.9766 137ZM71.9023 137L71.1426 136.35L69.7301 138H71.9023V137ZM75.4883 132.811L76.248 133.461L76.8039 132.811L76.2487 132.161L75.4883 132.811ZM71.8906 128.598V127.598H69.7217L71.1302 129.247L71.8906 128.598ZM73.9531 128.598L74.713 127.948L74.4136 127.598H73.9531V128.598ZM77.2794 132.248L79.8458 129.248L78.3261 127.948L75.7596 130.948L77.2794 132.248ZM79.0859 129.598H81.166V127.598H79.0859V129.598ZM80.4071 127.946L76.7919 132.159L78.3097 133.462L81.9249 129.249L80.4071 127.946ZM76.7916 133.461L80.3834 137.651L81.9018 136.349L78.31 132.16L76.7916 133.461ZM81.1426 136H79.0742V138H81.1426V136ZM79.8331 136.349L77.2784 133.372L75.7607 134.675L78.3154 137.651L79.8331 136.349ZM75.7592 133.374L73.2163 136.35L74.7369 137.65L77.2798 134.673L75.7592 133.374ZM73.9766 136H71.9023V138H73.9766V136ZM72.6621 137.65L76.248 133.461L74.7286 132.16L71.1426 136.35L72.6621 137.65ZM76.2487 132.161L72.6511 127.948L71.1302 129.247L74.7278 133.46L76.2487 132.161ZM71.8906 129.598H73.9531V127.598H71.8906V129.598ZM73.1932 129.248L75.7596 132.248L77.2794 130.948L74.713 127.948L73.1932 129.248ZM89.7207 130.121V131.121H90.7207V130.121H89.7207ZM86.3633 130.121V129.121H85.3633V130.121H86.3633ZM86.3633 137V138H87.3633V137H86.3633ZM84.8398 137H83.8398V138H84.8398V137ZM84.8398 130.121H85.8398V129.121H84.8398V130.121ZM81.4766 130.121H80.4766V131.121H81.4766V130.121ZM81.4766 128.598V127.598H80.4766V128.598H81.4766ZM89.7207 128.598H90.7207V127.598H89.7207V128.598ZM89.7207 129.121H86.3633V131.121H89.7207V129.121ZM85.3633 130.121V137H87.3633V130.121H85.3633ZM86.3633 136H84.8398V138H86.3633V136ZM85.8398 137V130.121H83.8398V137H85.8398ZM84.8398 129.121H81.4766V131.121H84.8398V129.121ZM82.4766 130.121V128.598H80.4766V130.121H82.4766ZM81.4766 129.598H89.7207V127.598H81.4766V129.598ZM88.7207 128.598V130.121H90.7207V128.598H88.7207ZM97.7539 133.566V134.566H98.7539V133.566H97.7539ZM92.9434 133.566H91.9434V134.566H92.9434V133.566ZM92.9434 132.031V131.031H91.9434V132.031H92.9434ZM97.7539 132.031H98.7539V131.031H97.7539V132.031ZM98.4395 137V138H99.4395V137H98.4395ZM91.5547 136.525L90.923 137.301L90.9308 137.307L90.9388 137.313L91.5547 136.525ZM91.0215 135.863L90.1322 136.321L90.1361 136.328L90.1402 136.336L91.0215 135.863ZM91.0273 128.82L90.3202 128.113L90.3101 128.123L90.3003 128.134L91.0273 128.82ZM98.4395 128.598H99.4395V127.598H98.4395V128.598ZM98.4395 130.121V131.121H99.4395V130.121H98.4395ZM92.334 130.121V129.121H91.334V130.121H92.334ZM98.4395 135.477H99.4395V134.477H98.4395V135.477ZM97.7539 132.566H92.9434V134.566H97.7539V132.566ZM93.9434 133.566V132.031H91.9434V133.566H93.9434ZM92.9434 133.031H97.7539V131.031H92.9434V133.031ZM96.7539 132.031V133.566H98.7539V132.031H96.7539ZM98.4395 136H92.9434V138H98.4395V136ZM92.9434 136C92.8484 136 92.7151 135.983 92.5366 135.93L91.9674 137.847C92.2889 137.943 92.6165 138 92.9434 138V136ZM92.5366 135.93C92.4122 135.893 92.2913 135.832 92.1706 135.738L90.9388 137.313C91.2478 137.555 91.5917 137.736 91.9674 137.847L92.5366 135.93ZM92.1864 135.75C92.0897 135.671 91.9926 135.558 91.9028 135.391L90.1402 136.336C90.3394 136.707 90.5978 137.036 90.923 137.301L92.1864 135.75ZM91.9108 135.406C91.8606 135.308 91.8105 135.14 91.8105 134.861H89.8105C89.8105 135.371 89.9012 135.871 90.1322 136.321L91.9108 135.406ZM91.8105 134.861V129.365H89.8105V134.861H91.8105ZM91.8105 129.365C91.8105 129.375 91.8096 129.388 91.8065 129.404C91.8034 129.42 91.7985 129.436 91.7922 129.451L89.9461 128.682C89.8543 128.902 89.8105 129.133 89.8105 129.365H91.8105ZM91.7922 129.451C91.79 129.456 91.7859 129.465 91.7792 129.475C91.7724 129.486 91.764 129.497 91.7544 129.507L90.3003 128.134C90.1467 128.296 90.0293 128.482 89.9461 128.682L91.7922 129.451ZM91.7345 129.527C91.7234 129.538 91.7105 129.549 91.6963 129.559C91.6821 129.568 91.6689 129.575 91.6581 129.579L90.8888 127.733C90.6771 127.821 90.4849 127.949 90.3202 128.113L91.7345 129.527ZM91.6581 129.579C91.6407 129.587 91.6239 129.591 91.6088 129.594C91.5939 129.597 91.5832 129.598 91.5781 129.598V127.598C91.347 127.598 91.1136 127.64 90.8888 127.733L91.6581 129.579ZM91.5781 129.598H98.4395V127.598H91.5781V129.598ZM97.4395 128.598V130.121H99.4395V128.598H97.4395ZM98.4395 129.121H92.334V131.121H98.4395V129.121ZM91.334 130.121V134.861H93.334V130.121H91.334ZM91.334 134.861C91.334 135.234 91.4358 135.676 91.7851 136.025L93.1993 134.611C93.2621 134.674 93.2995 134.743 93.3185 134.798C93.336 134.848 93.334 134.875 93.334 134.861H91.334ZM91.7851 136.025C92.1378 136.378 92.5851 136.477 92.9551 136.477V134.477C92.9376 134.477 92.9615 134.474 93.0104 134.491C93.0641 134.509 93.1343 134.546 93.1993 134.611L91.7851 136.025ZM92.9551 136.477H98.4395V134.477H92.9551V136.477ZM97.4395 135.477V137H99.4395V135.477H97.4395ZM108.248 136.654L107.339 136.238L107.332 136.254L107.325 136.27L108.248 136.654ZM107.258 137.064L106.907 138.001L106.919 138.005L107.258 137.064ZM107.006 136.895L107.731 136.206L107.728 136.203L107.006 136.895ZM101.439 131.082L102.162 130.39L100.439 128.592V131.082H101.439ZM101.439 137V138H102.439V137H101.439ZM99.916 137H98.916V138H99.916V137ZM100.045 128.826L99.2245 128.254L99.2209 128.26L100.045 128.826ZM100.385 128.539L100.009 127.612L99.9888 127.621L99.969 127.63L100.385 128.539ZM100.83 128.498L100.629 129.478L100.641 129.48L100.653 129.482L100.83 128.498ZM101.223 128.709L101.945 128.017L101.942 128.014L101.223 128.709ZM106.789 134.516L106.067 135.208L107.789 137.004V134.516H106.789ZM106.789 128.598V127.598H105.789V128.598H106.789ZM108.312 128.598H109.312V127.598H108.312V128.598ZM107.312 136.35C107.312 136.338 107.314 136.322 107.318 136.301C107.322 136.28 107.329 136.258 107.339 136.238L109.157 137.071C109.264 136.839 109.312 136.594 109.312 136.35H107.312ZM107.325 136.27C107.329 136.259 107.336 136.246 107.346 136.231C107.355 136.217 107.366 136.204 107.377 136.193L108.791 137.607C108.956 137.443 109.083 137.251 109.171 137.039L107.325 136.27ZM107.377 136.193C107.41 136.16 107.442 136.143 107.459 136.136L108.228 137.982C108.433 137.896 108.625 137.774 108.791 137.607L107.377 136.193ZM107.459 136.136C107.474 136.129 107.49 136.124 107.506 136.121C107.522 136.118 107.536 136.117 107.545 136.117V138.117C107.777 138.117 108.008 138.073 108.228 137.982L107.459 136.136ZM107.545 136.117C107.578 136.117 107.597 136.124 107.597 136.124L106.919 138.005C107.114 138.075 107.324 138.117 107.545 138.117V136.117ZM107.609 136.128C107.668 136.15 107.709 136.183 107.731 136.206L106.281 137.583C106.451 137.763 106.661 137.908 106.907 138.001L107.609 136.128ZM107.728 136.203L102.162 130.39L100.717 131.774L106.284 137.586L107.728 136.203ZM100.439 131.082V137H102.439V131.082H100.439ZM101.439 136H99.916V138H101.439V136ZM100.916 137V129.248H98.916V137H100.916ZM100.916 129.248C100.916 129.263 100.914 129.287 100.905 129.318C100.895 129.348 100.882 129.374 100.869 129.393L99.2209 128.26C99.0167 128.557 98.916 128.896 98.916 129.248H100.916ZM100.865 129.398C100.863 129.401 100.856 129.41 100.843 129.422C100.829 129.433 100.814 129.442 100.801 129.449L99.969 127.63C99.6621 127.77 99.4118 127.986 99.2245 128.254L100.865 129.398ZM100.76 129.466C100.746 129.472 100.724 129.478 100.696 129.481C100.668 129.483 100.645 129.481 100.629 129.478L101.031 127.518C100.685 127.447 100.336 127.48 100.009 127.612L100.76 129.466ZM100.653 129.482C100.63 129.478 100.6 129.469 100.569 129.452C100.538 129.435 100.516 129.417 100.503 129.404L101.942 128.014C101.689 127.753 101.37 127.579 101.007 127.514L100.653 129.482ZM100.501 129.401L106.067 135.208L107.511 133.824L101.945 128.017L100.501 129.401ZM107.789 134.516V128.598H105.789V134.516H107.789ZM106.789 129.598H108.312V127.598H106.789V129.598ZM107.312 128.598V136.35H109.312V128.598H107.312ZM117.682 130.121V131.121H118.682V130.121H117.682ZM114.324 130.121V129.121H113.324V130.121H114.324ZM114.324 137V138H115.324V137H114.324ZM112.801 137H111.801V138H112.801V137ZM112.801 130.121H113.801V129.121H112.801V130.121ZM109.438 130.121H108.438V131.121H109.438V130.121ZM109.438 128.598V127.598H108.438V128.598H109.438ZM117.682 128.598H118.682V127.598H117.682V128.598ZM117.682 129.121H114.324V131.121H117.682V129.121ZM113.324 130.121V137H115.324V130.121H113.324ZM114.324 136H112.801V138H114.324V136ZM113.801 137V130.121H111.801V137H113.801ZM112.801 129.121H109.438V131.121H112.801V129.121ZM110.438 130.121V128.598H108.438V130.121H110.438ZM109.438 129.598H117.682V127.598H109.438V129.598ZM116.682 128.598V130.121H118.682V128.598H116.682ZM120.342 137V138H121.342V137H120.342ZM118.818 137H117.818V138H118.818V137ZM118.818 128.598V127.598H117.818V128.598H118.818ZM120.342 128.598H121.342V127.598H120.342V128.598ZM120.342 136H118.818V138H120.342V136ZM119.818 137V128.598H117.818V137H119.818ZM118.818 129.598H120.342V127.598H118.818V129.598ZM119.342 128.598V137H121.342V128.598H119.342ZM128.832 136.859L129.206 137.787L129.211 137.785L128.832 136.859ZM123.975 136.859L123.596 137.785L123.603 137.788L123.975 136.859ZM122.123 135.014L121.197 135.392L121.2 135.399L122.123 135.014ZM122.123 130.59L121.199 130.207L121.197 130.211L122.123 130.59ZM122.861 129.477L123.564 130.188L123.568 130.184L122.861 129.477ZM128.832 128.744L128.45 129.668L128.453 129.67L128.832 128.744ZM129.945 129.477L129.238 130.184L129.243 130.188L129.945 129.477ZM130.678 130.59L129.751 130.966L129.752 130.968L130.678 130.59ZM129.271 131.182L128.337 131.538L128.34 131.547L128.344 131.556L129.271 131.182ZM128.867 130.555L128.152 131.254L128.16 131.262L128.168 131.27L128.867 130.555ZM128.24 130.15L127.866 131.078L127.875 131.081L127.884 131.085L128.24 130.15ZM124.561 130.15L124.922 131.083L124.929 131.08L124.561 130.15ZM123.934 130.555L124.633 131.27L124.641 131.262L123.934 130.555ZM123.523 131.182L122.594 130.813L122.591 130.821L123.523 131.182ZM123.523 134.422L122.589 134.778L122.592 134.787L122.596 134.796L123.523 134.422ZM123.934 135.049L123.226 135.756L123.234 135.764L123.934 135.049ZM124.561 135.453L124.187 136.381L124.196 136.384L124.205 136.388L124.561 135.453ZM128.234 135.453L128.595 136.386L128.603 136.383L128.234 135.453ZM128.867 135.049L129.566 135.764L129.574 135.756L128.867 135.049ZM129.271 134.422L128.342 134.053L128.339 134.061L129.271 134.422ZM129.941 133.602C129.941 133.997 129.874 134.337 129.752 134.635L131.603 135.392C131.833 134.831 131.941 134.23 131.941 133.602H129.941ZM129.752 134.635C129.624 134.948 129.452 135.206 129.238 135.42L130.652 136.834C131.064 136.423 131.38 135.939 131.603 135.392L129.752 134.635ZM129.238 135.42C129.024 135.634 128.766 135.806 128.453 135.934L129.211 137.785C129.757 137.561 130.241 137.245 130.652 136.834L129.238 135.42ZM128.458 135.932C128.162 136.051 127.826 136.117 127.438 136.117V138.117C128.057 138.117 128.651 138.011 129.206 137.787L128.458 135.932ZM127.438 136.117H125.375V138.117H127.438V136.117ZM125.375 136.117C124.987 136.117 124.647 136.051 124.346 135.931L123.603 137.788C124.161 138.011 124.755 138.117 125.375 138.117V136.117ZM124.353 135.934C124.04 135.806 123.782 135.634 123.568 135.42L122.154 136.834C122.565 137.245 123.05 137.561 123.596 137.785L124.353 135.934ZM123.568 135.42C123.353 135.204 123.178 134.944 123.046 134.628L121.2 135.399C121.428 135.943 121.745 136.425 122.154 136.834L123.568 135.42ZM123.049 134.635C122.927 134.337 122.859 133.997 122.859 133.602H120.859C120.859 134.23 120.968 134.831 121.197 135.392L123.049 134.635ZM122.859 133.602V131.996H120.859V133.602H122.859ZM122.859 131.996C122.859 131.606 122.926 131.267 123.049 130.968L121.197 130.211C120.968 130.772 120.859 131.371 120.859 131.996H122.859ZM123.047 130.973C123.179 130.654 123.353 130.397 123.564 130.188L122.159 128.765C121.745 129.174 121.426 129.659 121.199 130.207L123.047 130.973ZM123.568 130.184C123.782 129.97 124.04 129.798 124.353 129.67L123.596 127.819C123.05 128.042 122.565 128.358 122.154 128.769L123.568 130.184ZM124.353 129.67C124.653 129.547 124.99 129.48 125.375 129.48V127.48C124.752 127.48 124.156 127.59 123.596 127.819L124.353 129.67ZM125.375 129.48H127.438V127.48H125.375V129.48ZM127.438 129.48C127.823 129.48 128.157 129.547 128.45 129.668L129.214 127.82C128.656 127.59 128.06 127.48 127.438 127.48V129.48ZM128.453 129.67C128.766 129.798 129.024 129.97 129.238 130.184L130.652 128.769C130.241 128.358 129.757 128.042 129.211 127.819L128.453 129.67ZM129.243 130.188C129.452 130.395 129.623 130.65 129.751 130.966L131.604 130.214C131.381 129.663 131.063 129.175 130.648 128.765L129.243 130.188ZM129.752 130.968C129.874 131.267 129.941 131.606 129.941 131.996H131.941C131.941 131.371 131.833 130.772 131.603 130.211L129.752 130.968ZM129.941 131.996V133.602H131.941V131.996H129.941ZM130.418 131.996C130.418 131.586 130.351 131.185 130.199 130.808L128.344 131.556C128.387 131.662 128.418 131.804 128.418 131.996H130.418ZM130.206 130.826C130.064 130.454 129.853 130.12 129.566 129.84L128.168 131.27C128.233 131.333 128.291 131.417 128.337 131.538L130.206 130.826ZM129.582 129.856C129.302 129.569 128.968 129.357 128.596 129.216L127.884 131.085C128.005 131.131 128.089 131.189 128.152 131.254L129.582 129.856ZM128.614 129.223C128.24 129.072 127.843 129.004 127.438 129.004V131.004C127.618 131.004 127.757 131.034 127.866 131.078L128.614 129.223ZM127.438 129.004H125.375V131.004H127.438V129.004ZM125.375 129.004C124.967 129.004 124.569 129.071 124.192 129.221L124.929 131.08C125.045 131.034 125.189 131.004 125.375 131.004V129.004ZM124.2 129.218C123.833 129.36 123.505 129.569 123.226 129.848L124.641 131.262C124.714 131.189 124.803 131.129 124.922 131.083L124.2 129.218ZM123.234 129.84C122.951 130.117 122.739 130.447 122.594 130.813L124.453 131.55C124.503 131.424 124.565 131.336 124.633 131.27L123.234 129.84ZM122.591 130.821C122.446 131.195 122.383 131.591 122.383 131.996H124.383C124.383 131.8 124.413 131.653 124.456 131.543L122.591 130.821ZM122.383 131.996V133.602H124.383V131.996H122.383ZM122.383 133.602C122.383 134.007 122.446 134.403 122.589 134.778L124.458 134.066C124.413 133.948 124.383 133.798 124.383 133.602H122.383ZM122.596 134.796C122.741 135.156 122.951 135.48 123.226 135.756L124.641 134.342C124.565 134.266 124.501 134.172 124.451 134.048L122.596 134.796ZM123.234 135.764C123.509 136.033 123.831 136.237 124.187 136.381L124.935 134.526C124.806 134.474 124.709 134.409 124.633 134.334L123.234 135.764ZM124.205 136.388C124.578 136.53 124.972 136.594 125.375 136.594V134.594C125.184 134.594 125.035 134.564 124.917 134.519L124.205 136.388ZM125.375 136.594H127.426V134.594H125.375V136.594ZM127.426 136.594C127.829 136.594 128.223 136.53 128.595 136.386L127.873 134.521C127.762 134.564 127.617 134.594 127.426 134.594V136.594ZM128.603 136.383C128.963 136.24 129.289 136.035 129.566 135.764L128.168 134.334C128.094 134.406 127.998 134.471 127.866 134.524L128.603 136.383ZM129.574 135.756C129.853 135.477 130.062 135.149 130.204 134.783L128.339 134.061C128.293 134.179 128.233 134.269 128.16 134.342L129.574 135.756ZM130.201 134.791C130.351 134.412 130.418 134.012 130.418 133.602H128.418C128.418 133.793 128.387 133.939 128.342 134.053L130.201 134.791ZM130.418 133.602V131.996H128.418V133.602H130.418ZM140.779 136.654L139.87 136.238L139.863 136.254L139.856 136.27L140.779 136.654ZM139.789 137.064L139.438 138.001L139.45 138.005L139.789 137.064ZM139.537 136.895L140.262 136.206L140.259 136.203L139.537 136.895ZM133.971 131.082L134.693 130.39L132.971 128.592V131.082H133.971ZM133.971 137V138H134.971V137H133.971ZM132.447 137H131.447V138H132.447V137ZM132.576 128.826L131.756 128.254L131.752 128.26L132.576 128.826ZM132.916 128.539L132.54 127.612L132.52 127.621L132.5 127.63L132.916 128.539ZM133.361 128.498L133.16 129.478L133.172 129.48L133.185 129.482L133.361 128.498ZM133.754 128.709L134.476 128.017L134.473 128.014L133.754 128.709ZM139.32 134.516L138.598 135.208L140.32 137.004V134.516H139.32ZM139.32 128.598V127.598H138.32V128.598H139.32ZM140.844 128.598H141.844V127.598H140.844V128.598ZM139.844 136.35C139.844 136.338 139.845 136.322 139.849 136.301C139.854 136.28 139.861 136.258 139.87 136.238L141.688 137.071C141.795 136.839 141.844 136.594 141.844 136.35H139.844ZM139.856 136.27C139.861 136.259 139.867 136.246 139.877 136.231C139.886 136.217 139.897 136.204 139.908 136.193L141.322 137.607C141.487 137.443 141.614 137.251 141.702 137.039L139.856 136.27ZM139.908 136.193C139.941 136.16 139.973 136.143 139.99 136.136L140.76 137.982C140.964 137.896 141.156 137.774 141.322 137.607L139.908 136.193ZM139.99 136.136C140.005 136.129 140.021 136.124 140.038 136.121C140.054 136.118 140.067 136.117 140.076 136.117V138.117C140.308 138.117 140.539 138.073 140.76 137.982L139.99 136.136ZM140.076 136.117C140.11 136.117 140.128 136.124 140.128 136.124L139.45 138.005C139.645 138.075 139.855 138.117 140.076 138.117V136.117ZM140.14 136.128C140.199 136.15 140.24 136.183 140.262 136.206L138.812 137.583C138.982 137.763 139.192 137.908 139.438 138.001L140.14 136.128ZM140.259 136.203L134.693 130.39L133.248 131.774L138.815 137.586L140.259 136.203ZM132.971 131.082V137H134.971V131.082H132.971ZM133.971 136H132.447V138H133.971V136ZM133.447 137V129.248H131.447V137H133.447ZM133.447 129.248C133.447 129.263 133.445 129.287 133.436 129.318C133.427 129.348 133.413 129.374 133.4 129.393L131.752 128.26C131.548 128.557 131.447 128.896 131.447 129.248H133.447ZM133.397 129.398C133.395 129.401 133.388 129.41 133.374 129.422C133.36 129.433 133.345 129.442 133.332 129.449L132.5 127.63C132.193 127.77 131.943 127.986 131.756 128.254L133.397 129.398ZM133.292 129.466C133.277 129.472 133.255 129.478 133.227 129.481C133.2 129.483 133.176 129.481 133.16 129.478L133.562 127.518C133.216 127.447 132.867 127.48 132.54 127.612L133.292 129.466ZM133.185 129.482C133.162 129.478 133.132 129.469 133.1 129.452C133.069 129.435 133.047 129.417 133.035 129.404L134.473 128.014C134.221 127.753 133.901 127.579 133.538 127.514L133.185 129.482ZM133.032 129.401L138.598 135.208L140.042 133.824L134.476 128.017L133.032 129.401ZM140.32 134.516V128.598H138.32V134.516H140.32ZM139.32 129.598H140.844V127.598H139.32V129.598ZM139.844 128.598V136.35H141.844V128.598H139.844ZM150.576 135.342L149.624 135.035L149.621 135.044L150.576 135.342ZM148.766 136.941L148.562 135.962L148.558 135.963L148.766 136.941ZM142.367 137H141.367V138H142.367V137ZM142.367 135.477V134.477H141.367V135.477H142.367ZM148.924 135.219L148.2 134.528L148.192 134.537L148.924 135.219ZM148.918 133.836L148.178 134.509L148.186 134.518L148.195 134.526L148.918 133.836ZM148.625 133.637L148.243 134.561L148.254 134.565L148.625 133.637ZM143.943 133.438L143.643 134.391L143.655 134.395L143.943 133.438ZM143.146 133.01L142.519 133.788L142.525 133.793L143.146 133.01ZM142.537 132.242L141.645 132.694L141.649 132.703L142.537 132.242ZM142.537 129.928L141.649 129.467L141.647 129.472L142.537 129.928ZM143.146 129.16L143.774 129.939L143.776 129.937L143.146 129.16ZM143.943 128.732L144.232 129.69L144.244 129.686L143.943 128.732ZM149.926 128.598H150.926V127.598H149.926V128.598ZM149.926 130.121V131.121H150.926V130.121H149.926ZM144.061 130.385L143.329 129.702L143.321 129.711L144.061 130.385ZM144.061 131.779L143.329 132.461L143.337 132.47L143.345 132.478L144.061 131.779ZM148.256 132.031L148.28 131.032L148.268 131.031H148.256V132.031ZM148.777 132.102L148.549 133.075L148.559 133.078L148.569 133.08L148.777 132.102ZM149.322 132.289L148.891 133.191L148.898 133.195L149.322 132.289ZM149.844 132.617L149.215 133.394L149.22 133.399L149.226 133.404L149.844 132.617ZM150.277 133.086L149.451 133.649L149.455 133.655L149.459 133.661L150.277 133.086ZM149.693 134.527C149.693 134.742 149.665 134.908 149.624 135.035L151.528 135.649C151.643 135.291 151.693 134.914 151.693 134.527H149.693ZM149.621 135.044C149.573 135.2 149.514 135.319 149.451 135.412L151.104 136.537C151.291 136.263 151.431 135.96 151.531 135.639L149.621 135.044ZM149.451 135.412C149.383 135.512 149.309 135.589 149.229 135.65L150.447 137.237C150.703 137.04 150.922 136.805 151.104 136.537L149.451 135.412ZM149.229 135.65C149.117 135.736 149.007 135.802 148.901 135.85L149.732 137.669C149.985 137.554 150.223 137.408 150.447 137.237L149.229 135.65ZM148.901 135.85C148.787 135.902 148.674 135.939 148.562 135.962L148.97 137.92C149.232 137.866 149.486 137.781 149.732 137.669L148.901 135.85ZM148.558 135.963C148.433 135.99 148.329 136 148.244 136V138C148.487 138 148.731 137.971 148.974 137.92L148.558 135.963ZM148.244 136H142.367V138H148.244V136ZM143.367 137V135.477H141.367V137H143.367ZM142.367 136.477H148.244V134.477H142.367V136.477ZM148.244 136.477C148.741 136.477 149.261 136.323 149.655 135.9L148.192 134.537C148.205 134.524 148.22 134.511 148.237 134.499C148.253 134.488 148.268 134.481 148.279 134.477C148.3 134.469 148.294 134.477 148.244 134.477V136.477ZM149.647 135.909C150.026 135.513 150.17 135.015 150.17 134.527H148.17C148.17 134.578 148.163 134.592 148.166 134.582C148.168 134.577 148.172 134.568 148.178 134.557C148.185 134.546 148.193 134.536 148.2 134.528L149.647 135.909ZM150.17 134.527C150.17 134.284 150.133 134.037 150.044 133.796L148.167 134.485C148.164 134.479 148.17 134.489 148.17 134.527H150.17ZM150.044 133.796C149.957 133.557 149.823 133.336 149.641 133.145L148.195 134.526C148.187 134.518 148.18 134.509 148.175 134.501C148.169 134.492 148.167 134.486 148.167 134.485L150.044 133.796ZM149.658 133.163C149.469 132.956 149.242 132.806 148.996 132.708L148.254 134.565C148.25 134.564 148.239 134.559 148.224 134.549C148.209 134.538 148.193 134.525 148.178 134.509L149.658 133.163ZM149.007 132.713C148.756 132.609 148.497 132.566 148.244 132.566V134.566C148.259 134.566 148.265 134.568 148.263 134.567C148.262 134.567 148.254 134.565 148.243 134.561L149.007 132.713ZM148.244 132.566H144.74V134.566H148.244V132.566ZM144.74 132.566C144.61 132.566 144.442 132.543 144.232 132.48L143.655 134.395C144.015 134.503 144.378 134.566 144.74 134.566V132.566ZM144.244 132.484C144.081 132.432 143.923 132.35 143.768 132.226L142.525 133.793C142.862 134.06 143.235 134.263 143.643 134.391L144.244 132.484ZM143.774 132.231C143.654 132.135 143.534 131.993 143.425 131.782L141.649 132.703C141.868 133.124 142.154 133.494 142.519 133.788L143.774 132.231ZM143.429 131.791C143.357 131.649 143.297 131.426 143.297 131.082H141.297C141.297 131.652 141.396 132.203 141.645 132.694L143.429 131.791ZM143.297 131.082C143.297 130.737 143.358 130.519 143.427 130.384L141.647 129.472C141.396 129.961 141.297 130.513 141.297 131.082H143.297ZM143.425 130.388C143.534 130.177 143.654 130.035 143.774 129.939L142.519 128.382C142.154 128.676 141.868 129.046 141.649 129.467L143.425 130.388ZM143.776 129.937C143.927 129.815 144.079 129.736 144.232 129.69L143.655 127.775C143.238 127.901 142.858 128.107 142.517 128.383L143.776 129.937ZM144.244 129.686C144.452 129.621 144.615 129.598 144.74 129.598V127.598C144.373 127.598 144.005 127.665 143.643 127.779L144.244 129.686ZM144.74 129.598H149.926V127.598H144.74V129.598ZM148.926 128.598V130.121H150.926V128.598H148.926ZM149.926 129.121H144.74V131.121H149.926V129.121ZM144.74 129.121C144.235 129.121 143.72 129.284 143.329 129.702L144.792 131.067C144.782 131.077 144.77 131.088 144.755 131.098C144.74 131.108 144.726 131.115 144.715 131.119C144.694 131.128 144.696 131.121 144.74 131.121V129.121ZM143.321 129.711C142.959 130.109 142.82 130.6 142.82 131.082H144.82C144.82 131.029 144.828 131.011 144.826 131.017C144.825 131.019 144.822 131.026 144.817 131.034C144.812 131.043 144.806 131.051 144.8 131.058L143.321 129.711ZM142.82 131.082C142.82 131.563 142.956 132.061 143.329 132.461L144.792 131.098C144.801 131.107 144.809 131.117 144.815 131.128C144.821 131.139 144.825 131.147 144.826 131.15C144.828 131.157 144.82 131.138 144.82 131.082H142.82ZM143.345 132.478C143.739 132.881 144.248 133.031 144.74 133.031V131.031C144.692 131.031 144.684 131.024 144.701 131.031C144.71 131.034 144.723 131.04 144.737 131.049C144.752 131.059 144.765 131.07 144.776 131.081L143.345 132.478ZM144.74 133.031H148.244V131.031H144.74V133.031ZM148.244 133.031H148.256V131.031H148.244V133.031ZM148.232 133.031C148.318 133.033 148.423 133.046 148.549 133.075L149.005 131.128C148.764 131.072 148.522 131.037 148.28 131.032L148.232 133.031ZM148.569 133.08C148.671 133.101 148.778 133.137 148.891 133.191L149.754 131.387C149.507 131.269 149.251 131.18 148.985 131.123L148.569 133.08ZM148.898 133.195C149.006 133.245 149.111 133.31 149.215 133.394L150.473 131.84C150.249 131.658 150.006 131.505 149.746 131.383L148.898 133.195ZM149.226 133.404C149.304 133.465 149.38 133.544 149.451 133.649L151.104 132.523C150.925 132.26 150.711 132.027 150.462 131.831L149.226 133.404ZM149.459 133.661C149.522 133.75 149.58 133.866 149.627 134.016L151.537 133.421C151.435 133.095 151.29 132.789 151.096 132.511L149.459 133.661ZM149.627 134.016C149.666 134.141 149.693 134.307 149.693 134.527H151.693C151.693 134.146 151.646 133.773 151.537 133.421L149.627 134.016Z" fill="black" fill-opacity="0.2"/>
<circle cx="201" cy="132" r="9" fill="#002FD3"/>
<path d="M496.061 133.061C496.646 132.475 496.646 131.525 496.061 130.939L486.515 121.393C485.929 120.808 484.979 120.808 484.393 121.393C483.808 121.979 483.808 122.929 484.393 123.515L492.879 132L484.393 140.485C483.808 141.071 483.808 142.021 484.393 142.607C484.979 143.192 485.929 143.192 486.515 142.607L496.061 133.061ZM210 133.5H495V130.5H210V133.5Z" fill="black"/>
<circle cx="627" cy="132" r="132" fill="#AF0C0C"/>
<rect x="570" y="141" width="227" height="227" fill="#3D2A2A"/>
</svg>
